<svg width="1024" height="1024" version="1.1" viewBox="0 0 1024 1024" xmlns="http://www.w3.org/2000/svg">
 <g transform="translate(0 -26.067)">
  <path transform="translate(0 26.067)" d="m0 0v1024h1024v-1024zm80 84.801h150v150h-150zm714 0h150v150h-150zm-714 234.8h150v150h-150zm714 0h150v150h-150zm-412.11 46.822c4.4841 0.18126 11 3.0525 20.469 8.5195l228.43 128.44c8.5135 4.9153 8.4254 12.399-0.40039 17.494l-228.03 128.21c-30.479 17.597-30.363 8.4056-30.363-30.363v-213.42c0-26.66 0.0295-39.282 9.8945-38.883zm-301.89 187.98h150v150h-150zm714 0h150v150h-150zm-714 234.8h150v150h-150zm714 0h150v150h-150z"/>
 </g>
</svg>
