<svg width="1024" height="1024" version="1.1" viewBox="0 0 1024 1024" xmlns="http://www.w3.org/2000/svg">
 <g transform="translate(0 -26.067)">
  <path transform="translate(0 26.067)" d="m0 0v1024h1024v-1024h-1024zm653 162.62a10.001 10.001 0 0 1 6.6836 17.404l-154.08 143.98h291.24c36.098 0 65.16 20.596 65.16 46.18v382.64c0 25.584-29.062 46.18-65.16 46.18h-569.68c-36.098 0-65.16-20.596-65.16-46.18v-382.64c0-25.584 29.062-46.18 65.16-46.18h224.79l-103.13-98.334a10.001 10.001 0 1 1 13.801-14.475l116.03 110.63 167.39-156.41a10.001 10.001 0 0 1 6.9726-2.791zm-394.95 211.38c-25.513 0-46.053 15.404-46.053 34.539v305.92c0 19.135 20.54 34.539 46.053 34.539h407.89c25.513 0 46.053-15.404 46.053-34.539v-305.92c0-19.135-20.54-34.539-46.053-34.539h-407.89zm525.45 46.008a30 30 0 0 0-30 30 30 30 0 0 0 30 30 30 30 0 0 0 30-30 30 30 0 0 0-30-30zm0 97.984a30 30 0 0 0-30 30 30 30 0 0 0 30 30 30 30 0 0 0 30-30 30 30 0 0 0-30-30z"/>
 </g>
</svg>
